<?xml version="1.0" encoding="utf-8"?>
<!-- Generator: Adobe Illustrator 26.0.2, SVG Export Plug-In . SVG Version: 6.00 Build 0)  -->
<svg version="1.1" id="Layer_1" xmlns="http://www.w3.org/2000/svg" xmlns:xlink="http://www.w3.org/1999/xlink" x="0px" y="0px"
	 width="256px" height="256px" viewBox="0 0 256 256" style="enable-background:new 0 0 256 256;" xml:space="preserve">
<g id="Group_2261" style="opacity:0.797;">
	<path id="Path_2528" style="fill:#FFFFFF;" d="M254.7,141.4c-1.1,1.8-3.2,2.5-5.1,1.8c-2.2-0.8-2.3-2.7-2.3-4.7
		c0-6.9,0-13.8,0-20.8c0-2.1,0.1-4.1,2.4-5c2.2-0.9,3.7,0.4,5.1,1.9L254.7,141.4z"/>
	<path id="Path_2529" style="fill:#FFFFFF;" d="M155.2,62.8c0-5.4,0-10.5,0-15.6c0-3.1,0-6.3,0-9.4c-0.1-1.8,1.2-3.4,3.1-3.6
		c0.2,0,0.3,0,0.5,0c2-0.1,3.7,1.3,3.8,3.3c0,0,0,0.1,0,0.1c0,0.7,0.1,1.3,0,2c0,8.2,0.1,16.5,0,24.7c-0.2,1.4,0.6,2.7,1.9,3.3
		c1.9,1.1,3.7,2.4,6.1,3.9v-2.8c0-13.4,0-26.9,0-40.3c0-2.9,1.2-4.3,3.6-4.3c2.4,0,3.8,1.5,3.8,4.4c0,6.9,0,13.9,0,20.8
		c0,9,0,18,0.1,27c0.1,1.2,0.5,2.3,1.2,3.2c2,2.5,4.1,4.9,6.5,7.6c0.1-0.9,0.2-1.5,0.2-2.2c0-7.9,0-15.8,0-23.7
		c0-3.1,1.1-4.5,3.6-4.5c2.6,0,3.8,1.5,3.8,4.6c0,12.6,0,25.2,0,37.8c0,1.4,0.3,2.8,0.8,4.1c6,16.1,6,33.8-0.1,49.8
		c-0.5,1.2-0.7,2.5-0.7,3.8c0,12.7-0.1,25.4,0,38.1c0,2.1-0.4,3.8-2.7,4.4c-2.8,0.7-4.7-1-4.7-4.1c0-8.7,0-17.3,0-26.4
		c-2.8,3.2-5.3,6-7.7,8.9c-0.4,0.5-0.2,1.6-0.2,2.4c0,15.6,0,31.2-0.1,46.8c0.1,1.4-0.3,2.7-1.1,3.8c-1.2,0.8-2.6,1.1-4,0.8
		c-1.7-0.3-2.3-1.9-2.3-3.6c0-11,0-21.9,0-32.9c0-3.4,0-6.7,0-10.5c-2.7,1.7-5.1,3.1-7.4,4.8c-0.5,0.3-0.5,1.5-0.5,2.2
		c0,8.6,0,17.2,0,25.7c0,1.8-0.3,3.5-2.3,4.2c-1.8,0.8-4,0-4.8-1.9c-0.3-0.6-0.4-1.2-0.3-1.9c0-7.2,0-14.3,0-21.5v-3
		c-2.5,0.8-4.8,1.4-6.9,2.4c-0.6,0.3-1,1.5-1,2.4c-0.1,13,0,26.1,0,39.1c0,0.8,0,1.6-0.1,2.5c-0.2,2-2.1,3.4-4.1,3.2
		c-1.8-0.2-3.2-1.7-3.2-3.5c-0.1-2.2,0-4.5,0-6.7c0-10.6,0-21.3,0-31.9v-3l-8.3,0.8v3c0,15.7,0,31.5,0,47.2c0,0.7,0,1.5,0,2.2
		c0.1,1.8-1.2,3.3-3,3.4c-0.1,0-0.3,0-0.5,0c-1.9,0.3-3.6-1-3.8-2.9c0,0,0-0.1,0-0.1c-0.1-0.9-0.1-1.8-0.1-2.7c0-15.7,0-31.3,0-47
		v-3.1l-7.9-0.9v2.9c0,12.6,0,25.2,0,37.8c0,2.1-0.5,3.8-2.8,4.3c-2,0.5-4-0.7-4.5-2.6c-0.1-0.4-0.2-0.9-0.1-1.4
		c-0.1-5.8,0-11.5,0-17.3c0-7.8,0-15.7,0-23.5c0-1.6-0.4-2.4-2-2.8c-1.9-0.5-3.7-1.2-5.8-2c-0.1,1.1-0.1,2-0.1,2.8
		c0,7.2,0,14.3,0,21.5c0,2.8-1.3,4.3-3.6,4.2s-3.7-1.5-3.7-4.2c0-8.7-0.1-17.3,0-26c0.2-1.4-0.6-2.7-1.9-3.3c-2-1.1-3.8-2.4-6.1-3.9
		v3c0,13.4,0,26.9,0,40.3c0,1.7-0.2,3.4-2,3.8c-1.3,0.4-2.7,0.3-3.9-0.4c-1-1.1-1.5-2.4-1.5-3.9c-0.1-8.4-0.1-16.8-0.1-25.2
		c0-8,0-16,0-24c0-2,0.3-3.8,2.4-4.7c1.9-0.7,4.1-0.2,5.3,1.4c25.8,23.4,65.6,21.4,88.9-4.4c23.4-25.8,21.4-65.6-4.4-88.9
		c-25.8-23.4-65.6-21.4-88.9,4.4c-8.3,9.2-13.7,20.6-15.6,32.8c-1.6,8.6-0.9,17.6,2.1,25.8c1.6,4.5,2.4,9.3,2.3,14
		c-0.1,12.3,0,24.6-0.1,36.9c0,3.2-2.1,4.9-4.9,4c-2.1-0.7-2.5-2.3-2.5-4.3c0-12.6,0-25.2,0-37.8c0-1.8-0.3-3.6-0.9-5.3
		c-5.5-15.5-5.5-32.5,0.2-48c0.5-1.4,0.7-2.8,0.8-4.3c0.1-12.8,0-25.6,0-38.3c0-1.9,0.3-3.7,2.4-4.4c1.9-0.7,4,0.2,4.8,2.1
		c0.2,0.6,0.3,1.2,0.2,1.9c0,8,0,16,0,24v2.8c2.7-3.2,5.2-5.9,7.5-8.7c0.4-0.8,0.5-1.7,0.4-2.6c0-15.7,0-31.5,0.1-47.2
		c0-1.5,0.5-3,1.5-4.1c1.2-0.7,2.6-0.8,3.8-0.2c1.1,0.8,1.8,2,1.9,3.3c0.2,6.2,0.1,12.4,0.1,18.5c0,8.2,0,16.5,0,25.2
		c2.7-1.7,5.2-3.2,7.5-4.9c0.5-0.3,0.4-1.5,0.4-2.3c0-8.6,0-17.2,0-25.7c0-1.8,0.3-3.5,2.3-4.2c1.9-0.8,4,0,4.8,1.9
		c0.3,0.6,0.4,1.2,0.3,1.9c0,7.2,0,14.3,0,21.5v3.1c2.6-0.9,5-1.6,7.3-2.6c0.5-0.2,0.6-1.6,0.6-2.4c0-13.1,0-26.2,0-39.3
		c0-0.9,0-1.8,0.2-2.7c0.6-1.9,2.6-3,4.6-2.5c1.4,0.4,2.4,1.6,2.6,3c0.1,1.9,0.1,3.8,0.1,5.7c0,11.1,0,22.3,0,33.4v2.9l7.9-0.8v-2.9
		c0-15.8,0-31.7,0-47.5c0-0.8,0-1.6,0.1-2.5c0.1-1.8,1.7-3.2,3.5-3.1c0.1,0,0.2,0,0.3,0c1.8-0.2,3.3,1.2,3.5,2.9c0,0.1,0,0.3,0,0.4
		c0.1,3.6,0,7.3,0,10.9c0,12.9,0,25.9,0,38.8v2.8l8.3,0.9v-3c0-12.6,0-25.2,0-37.8c0-2.9,1.4-4.5,3.8-4.3c2.3,0.1,3.6,1.6,3.6,4.4
		c0,7.9,0,15.8,0,23.7c0,5.6,0.1,11.2,0,16.8c-0.2,1.2,0.5,2.3,1.7,2.5c0.1,0,0.1,0,0.2,0C151,61.3,152.9,62.1,155.2,62.8"/>
	<path id="Path_2530" style="fill:#FFFFFF;" d="M110.1,140.3v-12.3c0-7.4,0-14.8,0-22.3c-0.2-2,1.1-3.9,3-4.5c8.5-3,17-6.1,25.6-9.1
		c3.2-1.1,6,1.3,5,4.3c-0.6,1.3-1.7,2.3-3.1,2.8c-6.5,2.5-13,4.7-19.5,7c-3.9,1.4-3.9,1.4-3.4,6.1c3.7-1.3,7.5-2.6,11.1-3.9
		c6.3-2.2,12.5-4.6,18.8-6.7c1.6-0.5,2.3-1.2,2.2-2.9c-0.2-2.4-0.1-4.8,0-7.2c0-3,1.3-4.4,3.8-4.4c2.4,0.1,3.6,1.4,3.6,4.3
		c0,15.6,0,31.2,0,46.8c0.1,6-3.8,11.3-9.5,13.1c-7.2,2.3-14.8-1.7-17.1-8.9c-2.3-7.2,1.7-14.8,8.9-17.1c2.7-0.9,5.7-0.8,8.4,0.1
		c0.5,0.2,1.1,0.3,1.8,0.5v-16.9c-0.8,0.2-1.5,0.4-2.1,0.6c-9.4,3.3-18.8,6.7-28.2,10c-1.3,0.3-2.2,1.5-1.9,2.9
		c0.1,10,0.1,20,0,29.9c0.1,7.5-5.9,13.7-13.5,13.8c-7.5,0.1-13.7-5.9-13.8-13.5c-0.1-7.5,5.9-13.7,13.5-13.8c1.3,0,2.6,0.2,3.9,0.5
		C108.4,139.8,109.1,140.1,110.1,140.3 M137.4,138.4c0,3.5,2.8,6.3,6.3,6.3c3.4-0.1,6.1-2.8,6.1-6.2c0.1-3.4-2.6-6.2-6-6.2
		c-0.1,0-0.2,0-0.3,0C140.2,132.4,137.5,135.1,137.4,138.4 M103.8,158.8c3.4,0,6.3-2.7,6.3-6.2c0,0,0,0,0-0.1
		c-0.1-3.4-2.8-6.1-6.2-6.2c-3.4,0-6.2,2.8-6.2,6.2c0,0,0,0,0,0.1C97.7,156.1,100.4,158.8,103.8,158.8
		C103.7,158.8,103.8,158.8,103.8,158.8"/>
	<path id="Path_2531" style="fill:#FFFFFF;" d="M54.8,128.3c0,17.2,0,34.4,0,51.6c0,2-0.4,3.6-2.5,4.3c-1.9,0.7-4.1-0.4-4.7-2.3
		c-0.1-0.3-0.2-0.7-0.2-1c-0.1-0.7,0-1.3,0-2c0-33.9,0-67.9,0-101.8c0-0.4,0-0.8,0-1.2c0.1-2.9,1.5-4.5,3.8-4.4
		c2.3,0.1,3.6,1.6,3.6,4.4C54.8,93.4,54.8,110.8,54.8,128.3"/>
	<path id="Path_2532" style="fill:#FFFFFF;" d="M201.2,127.7c0-16.9,0-33.8,0-50.7c-0.1-0.8,0-1.6,0.1-2.5c0.3-2,2.2-3.4,4.2-3.1
		c1.4,0.2,2.5,1.2,2.9,2.5c0.2,0.7,0.3,1.5,0.2,2.2c0,34.5,0,69,0,103.5c0.1,1.4-0.4,2.7-1.3,3.7c-1.1,0.7-2.5,0.9-3.8,0.5
		c-1-0.4-1.6-1.8-2.2-2.9c-0.2-0.7-0.2-1.5-0.1-2.2C201.2,161.8,201.2,144.8,201.2,127.7"/>
	<path id="Path_2533" style="fill:#FFFFFF;" d="M231.9,127.9c0-11.4,0-22.7,0-34.1c0-0.7,0-1.5,0-2.2c0.2-2,2-3.5,4-3.3
		c1.7,0.2,3.1,1.5,3.3,3.2c0.1,0.7,0.1,1.3,0.1,2c0,23,0,46,0,68.9c0,0.6,0,1.2,0,1.7c0,1.9-1.5,3.4-3.3,3.4c-0.1,0-0.1,0-0.2,0
		c-1.9,0.2-3.6-1.2-3.8-3.2c0-0.1,0-0.1,0-0.2c-0.1-0.7,0-1.3,0-2C231.9,150.8,231.9,139.4,231.9,127.9"/>
	<path id="Path_2534" style="fill:#FFFFFF;" d="M24.1,128c0,11.8,0,23.6,0,35.3c0,2-0.6,3.6-2.7,4.2c-1.9,0.6-4-0.5-4.6-2.4
		c-0.1-0.5-0.2-0.9-0.2-1.4c-0.1-4.5,0-9.1,0-13.6c0-18.7,0-37.4,0-56.1c0-0.7,0-1.5,0-2.2c0.1-2,1.8-3.5,3.7-3.5
		c2,0,3.6,1.5,3.6,3.5c0,0,0,0.1,0,0.1c0.1,3.3,0,6.6,0,9.9C24.1,110.5,24.1,119.3,24.1,128"/>
	<path id="Path_2535" style="fill:#FFFFFF;" d="M216.5,127.7c0-8.7,0-17.3,0-26c0-0.7,0-1.3,0-2c0-1.9,1.6-3.5,3.5-3.5
		c2-0.1,3.7,1.4,3.8,3.4c0,0,0,0,0,0c0.1,0.8,0.1,1.6,0,2.5c0,17.6,0,35.3,0,52.9c0,3.5-2.7,5.6-5.4,3.9c-1.2-0.9-1.9-2.3-1.9-3.8
		C216.5,146.1,216.5,136.9,216.5,127.7"/>
	<path id="Path_2536" style="fill:#FFFFFF;" d="M39.5,128.1c0,9.2,0,18.3,0,27.4c0.2,1.9-1.1,3.7-3.1,4c-0.2,0-0.4,0-0.6,0
		c-2,0-3.7-1.7-3.7-3.7c0-0.1,0-0.2,0-0.4c0-0.3,0-0.7,0-1v-52.9c0-0.3,0-0.7,0-1c0.1-2.7,1.5-4.3,3.8-4.3c2.3,0,3.6,1.7,3.6,4.4
		C39.5,109.8,39.5,119,39.5,128.1"/>
	<path id="Path_2537" style="fill:#FFFFFF;" d="M1.4,127.7c0-3.6,0-7.2,0-10.9c0-2.8,1.5-4.5,3.8-4.4c2.2,0.1,3.6,1.7,3.6,4.4
		c0,7.5,0,15,0,22.4c0,2.7-1.2,4-3.5,4.1c-2.4,0.1-3.8-1.4-3.9-4C1.3,135.5,1.4,131.6,1.4,127.7"/>
</g>
</svg>
