<?xml version="1.0" encoding="utf-8"?>
<!-- Generator: Adobe Illustrator 26.0.2, SVG Export Plug-In . SVG Version: 6.00 Build 0)  -->
<svg version="1.1" id="Layer_1" xmlns="http://www.w3.org/2000/svg" xmlns:xlink="http://www.w3.org/1999/xlink" x="0px" y="0px"
	 width="256px" height="144.2px" viewBox="0 0 256 144.2" style="enable-background:new 0 0 256 144.2;" xml:space="preserve">
<g id="Group_2260" style="opacity:0.797;">
	<path id="Path_2523" style="fill:#FFFFFF;" d="M-155.1-323.9c1.3,0.3,2.6,0.4,3.9,0.8c5.6,1.6,10.3,5.5,12.9,10.8
		c0.1,0.2,0.2,0.5,0.1,0.8c-2.1,3.5-4.3,7-6.5,10.5c-1.5-1.5-3.6-2.3-5.7-2.2c-2.1,0.1-4.1,1.1-5.4,2.7c-1.5-1.8-2.9-3.5-4.3-5.3
		c-0.5-0.6-0.9-1.1-1.4-1.6c-0.8-1-2.3-1.2-3.4-0.5c-1.1,0.7-1.6,2.1-1,3.3l2.4,6.1c-0.4-0.1-0.6-0.1-0.8-0.2
		c-3.5-1.3-6.3-3.8-7.8-7.2c-1-2.2-1.9-4.4-2.7-6.7c-0.1-0.3,0-0.7,0.2-1c3.3-5.6,9.1-9.4,15.5-10.1c0.2,0,0.4-0.1,0.5-0.1H-155.1z"
		/>
	<path id="Path_2524" style="fill:#FFFFFF;" d="M-136-305.1c0.4,2.8,0.2,5.7-0.5,8.4c-2.1,7.9-4.2,15.7-6.3,23.6
		c-1.3,4.7-2.5,9.5-3.8,14.2c-0.6,1.7-0.3,3.5,0.7,4.9c0.1,0.1,0.1,0.2,0.2,0.4c0,0.1,0.1,0.2,0.1,0.2h-16.4
		c6.7-11.6,8-24.1,5.9-37.1l0.2-0.2c0.1,0.2,0.2,0.4,0.3,0.6c1.9,2.1,4.8,2.9,7.5,2.1c2.7-0.7,4.8-2.9,5.4-5.7
		c0.2-0.7,0.5-1.4,0.8-2c1.7-2.9,3.5-5.8,5.3-8.6C-136.4-304.5-136.2-304.7-136-305.1"/>
	<path id="Path_2525" style="fill:#FFFFFF;" d="M-166.7-255.9c-0.1-0.9-0.2-1.8-0.4-2.7c-3.2-12.1-6.4-24.1-9.6-36.2
		c-0.8-2.5-1.2-5-1.3-7.6c0-0.9,0.1-1.7,0.3-2.5c0.1,0.2,0.3,0.5,0.4,0.7c1.9,3.8,4.7,6.9,8.3,9.1c1.9,1.1,3.9,1.8,6,2.1
		c0.4,0.1,0.8,0.1,0.9,0.6c2,9.6,2.1,19.1-1,28.5C-164-261.1-165.2-258.4-166.7-255.9"/>
	<path id="Path_2526" style="fill:#FFFFFF;" d="M-156.9-239.4c-4.9,0-9.8,0-14.7,0c-1.5,0.2-2.9-0.8-3.1-2.3
		c-0.1-0.8,0.1-1.5,0.6-2.1c0.8-1.2,1.5-2.4,2.3-3.6c0.2-0.3,0.5-0.5,0.9-0.5c9.3,0,18.7,0,28,0c0.3,0,0.6,0.2,0.8,0.5
		c0.9,1.3,1.7,2.6,2.5,4c0.8,1.2,0.5,2.8-0.7,3.7c-0.5,0.3-1.1,0.5-1.7,0.5C-146.9-239.4-151.9-239.4-156.9-239.4"/>
	<path id="Path_2527" style="fill:#FFFFFF;" d="M-147.8-295.4c0,1.4-1,2.5-2.4,2.5c0,0,0,0,0,0c-1.4-0.1-2.5-1.3-2.4-2.7
		c0.1-1.3,1.1-2.3,2.4-2.4C-148.8-297.9-147.7-296.8-147.8-295.4C-147.8-295.4-147.8-295.4-147.8-295.4"/>
</g>
<g id="Group_2262" style="opacity:0.797;">
	<path id="Path_2520" style="fill:#FFFFFF;" d="M252.6,69.7c0.1-10.9-4.5-21.3-12.7-28.5c-3.8-3.4-7.1-7.3-10-11.5
		c-1-1.4-2-2.7-2.9-4.1C216.4,10.5,199,1.5,180.6,1.9c-17.5-0.1-35,0-52.5,0v0c-18.3,0-36.7-0.2-55,0.1C60.1,2.2,47.6,7.1,38,15.7
		c-6.6,5.6-10.9,13.1-16.1,19.9c-0.8,1.1-1.8,2.2-2.9,3C9.3,46,3.5,57.4,3.4,69.6c-0.2,10.4-0.1,20.8,0,31.2
		c0.2,19.5,13.9,36.2,33,40.3c7.9,1.1,15.8,1.5,23.7,1.1c10.9-0.1,21.7-3.1,31.1-8.5c11-6.4,20.1-15.5,26.6-26.5
		c3.1-5.6,10.2-7.7,15.8-4.6c1.9,1,3.4,2.6,4.5,4.5c1,1.5,1.9,2.9,2.9,4.4c9.5,14.6,24.3,25.1,41.3,29c9.5,2.4,19.1,1.8,28.7,1.7
		c22.8-0.4,41.2-18.8,41.5-41.6C252.7,90.3,252.7,80,252.6,69.7 M194.5,68.3c-0.1,0.9-0.4,1.8-0.8,2.6c-3.4,7.4-6.9,14.9-10.3,22.3
		c-0.8,1.9-1.9,3.4-4.2,3.4c-2.3,0-3.3-1.5-4.2-3.3c-3.5-7.7-7-15.4-10.6-23c-0.8-1.8-1.1-3.7,0.5-4.8c1.2-0.9,2.8-1.2,4.3-1
		c1,0.2,2.1,1.6,2.6,2.7c2.5,5,4.7,10.1,7.3,15.8c2.5-5.4,4.7-10.2,7-15.1c0.3-0.8,0.7-1.5,1.1-2.2c1-1.5,3-2.1,4.7-1.4
		C193.7,64.9,194.7,66.6,194.5,68.3 M35.4,30.8C42.6,20,54,12.7,66.8,10.6c3-0.5,6-0.7,9-0.6l104.5,0c15.2-0.4,29.6,6.6,38.8,18.7
		c0.6,0.7,1,1.5,1.5,2.2L35.4,30.8z M223.2,90.1c1.4,1.7,1.1,4.3-0.6,5.7c-0.1,0.1-0.2,0.2-0.4,0.3c-1.9,1.2-4.5,0.6-5.6-1.4
		c-0.1-0.1-0.1-0.2-0.1-0.3c-1.4-2-2.7-4-3.9-6.1c-0.6-1.4-2.3-2.1-3.7-1.5c-0.1,0-0.2,0.1-0.3,0.1c0,1.8,0.1,3.7,0,5.6
		c0.1,2.1-1.5,4-3.6,4.1c-0.1,0-0.1,0-0.2,0c-2.1,0.2-3.9-1.4-4.1-3.5c0-0.1,0-0.2,0-0.3c-0.1-8.3-0.1-16.6,0-24.9
		c0-2.1,1.6-3.8,3.7-3.9c0.1,0,0.3,0,0.4,0c2.7-0.1,5.4-0.1,8,0c6.2-0.1,11.3,4.9,11.4,11.1c0,3.2-1.3,6.2-3.6,8.4
		c-0.3,0.3-0.7,0.5-1,0.7C220.9,86.5,222.1,88.3,223.2,90.1"/>
	<path id="Path_2521" style="fill:#FFFFFF;" d="M208.6,72.2v6.4c2.5-0.5,5.3,1,6.8-1.7c0.5-1.1,0.5-2.4-0.1-3.4
		C213.6,71.2,211,72.3,208.6,72.2"/>
</g>
</svg>
