<?xml version="1.0" encoding="utf-8"?>
<!-- Generator: Adobe Illustrator 26.0.2, SVG Export Plug-In . SVG Version: 6.00 Build 0)  -->
<svg version="1.1" id="Layer_1" xmlns="http://www.w3.org/2000/svg" xmlns:xlink="http://www.w3.org/1999/xlink" x="0px" y="0px"
	 width="128px" height="256.2px" viewBox="0 0 128 256.2" style="enable-background:new 0 0 128 256.2;" xml:space="preserve">
<g id="Group_2260" style="opacity:0.797;">
	<path id="Path_2523" style="fill:#FFFFFF;" d="M-219.1-268c1.3,0.3,2.6,0.4,3.9,0.8c5.6,1.6,10.3,5.5,12.9,10.8
		c0.1,0.2,0.2,0.5,0.1,0.8c-2.1,3.5-4.3,7-6.5,10.5c-1.5-1.5-3.6-2.3-5.7-2.2c-2.1,0.1-4.1,1.1-5.4,2.7c-1.5-1.8-2.9-3.5-4.3-5.3
		c-0.5-0.6-0.9-1.1-1.4-1.6c-0.8-1-2.3-1.2-3.4-0.5c-1.1,0.7-1.6,2.1-1,3.3l2.4,6.1c-0.4-0.1-0.6-0.1-0.8-0.2
		c-3.5-1.3-6.3-3.8-7.8-7.2c-1-2.2-1.9-4.4-2.7-6.7c-0.1-0.3,0-0.7,0.2-1c3.3-5.6,9.1-9.4,15.5-10.1c0.2,0,0.4-0.1,0.5-0.1H-219.1z"
		/>
	<path id="Path_2524" style="fill:#FFFFFF;" d="M-200-249.2c0.4,2.8,0.2,5.7-0.5,8.4c-2.1,7.9-4.2,15.7-6.3,23.6
		c-1.3,4.7-2.5,9.5-3.8,14.2c-0.6,1.7-0.3,3.5,0.7,4.9c0.1,0.1,0.1,0.2,0.2,0.4c0,0.1,0.1,0.2,0.1,0.2h-16.4
		c6.7-11.6,8-24.1,5.9-37.1l0.2-0.2c0.1,0.2,0.2,0.4,0.3,0.6c1.9,2.1,4.8,2.9,7.5,2.1c2.7-0.7,4.8-2.9,5.4-5.7
		c0.2-0.7,0.5-1.4,0.8-2c1.7-2.9,3.5-5.8,5.3-8.6C-200.4-248.6-200.3-248.8-200-249.2"/>
	<path id="Path_2525" style="fill:#FFFFFF;" d="M-230.7-200c-0.1-0.9-0.2-1.8-0.4-2.7c-3.2-12.1-6.4-24.1-9.6-36.2
		c-0.8-2.5-1.2-5-1.3-7.6c0-0.9,0.1-1.7,0.3-2.5c0.1,0.2,0.3,0.5,0.4,0.7c1.9,3.8,4.7,6.9,8.3,9.1c1.9,1.1,3.9,1.8,6,2.1
		c0.4,0.1,0.8,0.1,0.9,0.6c2,9.6,2.1,19.1-1,28.6C-228-205.2-229.3-202.5-230.7-200"/>
	<path id="Path_2526" style="fill:#FFFFFF;" d="M-220.9-183.5c-4.9,0-9.8,0-14.7,0c-1.5,0.2-2.9-0.8-3.1-2.3
		c-0.1-0.8,0.1-1.5,0.6-2.1c0.8-1.2,1.5-2.4,2.3-3.6c0.2-0.3,0.5-0.5,0.9-0.5c9.3,0,18.7,0,28,0c0.3,0,0.6,0.2,0.8,0.5
		c0.9,1.3,1.7,2.6,2.5,4c0.8,1.2,0.5,2.8-0.7,3.7c-0.5,0.3-1.1,0.5-1.7,0.5C-211-183.5-215.9-183.5-220.9-183.5"/>
	<path id="Path_2527" style="fill:#FFFFFF;" d="M-211.8-239.5c0,1.4-1,2.5-2.4,2.5c0,0,0,0,0,0c-1.4-0.1-2.5-1.3-2.4-2.7
		c0.1-1.3,1.1-2.3,2.4-2.4C-212.8-242-211.8-240.9-211.8-239.5C-211.8-239.5-211.8-239.5-211.8-239.5"/>
</g>
<g id="Group_2260_00000027603071527468517950000007711330720713795006_" style="opacity:0.797;">
	<path id="Path_2523_00000130632194892992288590000012990787826095971509_" style="fill:#FFFFFF;" d="M69.4,2.1
		c3.8,0.8,7.7,1.3,11.5,2.4c16.8,4.7,30.8,16.4,38.4,32.1c0.4,0.7,0.4,1.6,0.2,2.4c-6.4,10.4-12.8,20.7-19.5,31.3
		c-4.5-4.5-10.7-6.8-17-6.6c-6.3,0.3-12.2,3.2-16.2,8C62.4,66.4,58.2,61.2,54,56c-1.3-1.6-2.6-3.3-4.1-4.9c-2.5-3-6.7-3.6-10-1.6
		c-3.3,2.1-4.6,6.3-3,9.9L44,77.5c-1.2-0.3-1.8-0.3-2.4-0.5c-10.3-3.8-18.7-11.4-23.4-21.4c-3-6.5-5.7-13.2-8-20
		c-0.2-1-0.1-2,0.5-2.9C20.5,16,37.7,4.8,57,2.6c0.6-0.1,1.1-0.3,1.6-0.4H69.4z"/>
	<path id="Path_2524_00000047047624969114299430000004656265270051265931_" style="fill:#FFFFFF;" d="M126.3,58.2
		c1.2,8.4,0.7,17-1.6,25.1c-6.3,23.5-12.6,46.9-18.9,70.4c-3.8,14.1-7.4,28.2-11.3,42.2c-1.7,5-0.9,10.4,2.1,14.7
		c0.2,0.3,0.4,0.7,0.6,1.1c0.1,0.2,0.2,0.5,0.2,0.7h-49c19.9-34.7,23.9-71.8,17.6-110.5l0.7-0.6c0.3,0.7,0.6,1.3,1,1.9
		c5.6,6.3,14.4,8.7,22.4,6.2c8.1-2.2,14.4-8.7,16.2-16.9c0.5-2.1,1.4-4.1,2.5-6c5.2-8.6,10.6-17.1,15.9-25.7
		C125.1,60,125.5,59.3,126.3,58.2"/>
	<path id="Path_2525_00000148658931057974717910000015204007018802617254_" style="fill:#FFFFFF;" d="M34.7,204.7
		c-0.2-2.7-0.6-5.4-1.1-8c-9.5-36-19.1-71.9-28.7-107.9c-2.3-7.3-3.6-15-3.8-22.6c0-2.5,0.3-5.1,0.9-7.5c0.4,0.7,0.8,1.4,1.2,2.1
		C8.7,71.9,17.3,81.4,28,87.9c5.5,3.2,11.6,5.3,18,6.2c1.2,0.2,2.3,0.2,2.6,1.9c6,28.6,6.4,57-3.1,85.1
		C42.7,189.3,39.1,197.2,34.7,204.7"/>
	<path id="Path_2526_00000146467735069706556660000002080738098022538943_" style="fill:#FFFFFF;" d="M64,253.9
		c-14.6,0-29.2,0-43.7,0c-4.4,0.6-8.5-2.5-9.1-7c-0.3-2.2,0.3-4.5,1.8-6.3c2.3-3.6,4.4-7.3,6.7-10.8c0.6-0.9,1.6-1.4,2.6-1.6
		c27.8-0.1,55.7-0.1,83.5,0c1,0.1,1.9,0.6,2.5,1.4c2.5,3.9,5,7.9,7.3,11.9c2.5,3.6,1.6,8.5-2,10.9c-1.5,1-3.3,1.5-5.1,1.4
		C93.6,254,78.8,254,64,253.9"/>
	<path id="Path_2527_00000133497771522500489720000013068744273354179509_" style="fill:#FFFFFF;" d="M91.1,87
		c0.1,4-3.1,7.4-7.1,7.5c0,0,0,0-0.1,0c-4.2-0.3-7.3-3.9-7-8c0.3-3.8,3.3-6.8,7.1-7C88.1,79.6,91.2,82.9,91.1,87
		C91.1,87,91.1,87,91.1,87"/>
</g>
</svg>
