<?xml version="1.0" encoding="utf-8"?>
<!-- Generator: Adobe Illustrator 26.0.2, SVG Export Plug-In . SVG Version: 6.00 Build 0)  -->
<svg version="1.1" id="Layer_1" xmlns="http://www.w3.org/2000/svg" xmlns:xlink="http://www.w3.org/1999/xlink" x="0px" y="0px"
	 width="256px" height="256px" viewBox="0 0 256 256" style="enable-background:new 0 0 256 256;" xml:space="preserve">
<g id="Group_2261" style="opacity:0.797;">
	<path id="Path_2528" style="fill:#FFFFFF;" d="M252.7,141.3c-1.1,1.8-3.2,2.5-5,1.8c-2.2-0.8-2.3-2.7-2.3-4.6c0-6.8,0-13.6,0-20.5
		c0-2.1,0.1-4,2.4-4.9c2.2-0.9,3.6,0.4,5,1.9L252.7,141.3z"/>
	<path id="Path_2529" style="fill:#FFFFFF;" d="M154.7,63.9c0-5.3,0-10.3,0-15.4c0-3.1,0-6.2,0-9.3c-0.1-1.8,1.2-3.3,3.1-3.5
		c0.2,0,0.3,0,0.5,0c2-0.1,3.6,1.3,3.7,3.3v0.1c0,0.7,0.1,1.3,0,2c0,8.1,0.1,16.3,0,24.3c-0.2,1.4,0.6,2.7,1.9,3.3
		c1.9,1.1,3.6,2.4,6,3.8v-2.8c0-13.2,0-26.5,0-39.7c0-2.9,1.2-4.2,3.5-4.2s3.7,1.5,3.7,4.3c0,6.8,0,13.7,0,20.5
		c0,8.9,0,17.7,0.1,26.6c0.1,1.2,0.5,2.3,1.2,3.2c2,2.5,4,4.8,6.4,7.5c0.1-0.9,0.2-1.5,0.2-2.2c0-7.8,0-15.6,0-23.3
		c0-3.1,1.1-4.4,3.5-4.4c2.6,0,3.7,1.5,3.7,4.5c0,12.4,0,24.8,0,37.2c0,1.4,0.3,2.8,0.8,4c5.9,15.9,5.9,33.3-0.1,49.1
		c-0.5,1.2-0.7,2.5-0.7,3.7c0,12.5-0.1,25,0,37.5c0,2.1-0.4,3.7-2.7,4.3c-2.8,0.7-4.6-1-4.6-4c0-8.6,0-17,0-26
		c-2.8,3.2-5.2,5.9-7.6,8.8c-0.4,0.5-0.2,1.6-0.2,2.4c0,15.4,0,30.7-0.1,46.1c0.1,1.4-0.3,2.7-1.1,3.7c-1.2,0.8-2.6,1.1-3.9,0.8
		c-1.7-0.3-2.3-1.9-2.3-3.5c0-10.8,0-21.6,0-32.4c0-3.3,0-6.6,0-10.3c-2.7,1.7-5,3.1-7.3,4.7c-0.5,0.3-0.5,1.5-0.5,2.2
		c0,8.5,0,16.9,0,25.3c0,1.8-0.3,3.4-2.3,4.1c-1.8,0.8-3.9,0-4.7-1.9c-0.3-0.6-0.4-1.2-0.3-1.9c0-7.1,0-14.1,0-21.2v-3
		c-2.5,0.8-4.7,1.4-6.8,2.4c-0.6,0.3-1,1.5-1,2.4c-0.1,12.8,0,25.7,0,38.5c0,0.8,0,1.6-0.1,2.5c-0.2,2-2.1,3.3-4,3.2
		c-1.8-0.2-3.2-1.7-3.2-3.4c-0.1-2.2,0-4.4,0-6.6c0-10.4,0-21,0-31.4v-3l-8.2,0.8v3c0,15.5,0,31,0,46.5c0,0.7,0,1.5,0,2.2
		c0.1,1.8-1.2,3.3-3,3.3c-0.1,0-0.3,0-0.5,0c-1.9,0.3-3.5-1-3.7-2.9v-0.1c-0.1-0.9-0.1-1.8-0.1-2.7c0-15.5,0-30.8,0-46.3v-3.1
		l-7.8-0.9v2.9c0,12.4,0,24.8,0,37.2c0,2.1-0.5,3.7-2.8,4.2c-2,0.5-3.9-0.7-4.4-2.6c-0.1-0.4-0.2-0.9-0.1-1.4c-0.1-5.7,0-11.3,0-17
		c0-7.7,0-15.5,0-23.2c0-1.6-0.4-2.4-2-2.8c-1.9-0.5-3.6-1.2-5.7-2c-0.1,1.1-0.1,2-0.1,2.8c0,7.1,0,14.1,0,21.2
		c0,2.8-1.3,4.2-3.5,4.1c-2.3-0.1-3.6-1.5-3.6-4.1c0-8.6-0.1-17,0-25.6c0.2-1.4-0.6-2.7-1.9-3.3c-2-1.1-3.7-2.4-6-3.8v3
		c0,13.2,0,26.5,0,39.7c0,1.7-0.2,3.3-2,3.7c-1.3,0.4-2.7,0.3-3.8-0.4c-1-1.1-1.5-2.4-1.5-3.8c-0.1-8.3-0.1-16.6-0.1-24.8
		c0-7.9,0-15.8,0-23.6c0-2,0.3-3.7,2.4-4.6c1.9-0.7,4-0.2,5.2,1.4c25.4,23.1,64.6,21.1,87.6-4.3c23.1-25.4,21.1-64.6-4.3-87.6
		c-25.4-23.1-64.6-21.1-87.6,4.3c-8.2,9.1-13.5,20.3-15.4,32.3c-1.6,8.5-0.9,17.3,2.1,25.4c1.6,4.4,2.4,9.2,2.3,13.8
		c-0.1,12.1,0,24.2-0.1,36.4c0,3.2-2.1,4.8-4.8,3.9c-2.1-0.7-2.5-2.3-2.5-4.2c0-12.4,0-24.8,0-37.2c0-1.8-0.3-3.5-0.9-5.2
		c-5.4-15.3-5.4-32,0.2-47.3c0.5-1.4,0.7-2.8,0.8-4.2c0.1-12.6,0-25.2,0-37.7c0-1.9,0.3-3.6,2.4-4.3c1.9-0.7,3.9,0.2,4.7,2.1
		c0.2,0.6,0.3,1.2,0.2,1.9c0,7.9,0,15.8,0,23.6V88c2.7-3.2,5.1-5.8,7.4-8.6c0.4-0.8,0.5-1.7,0.4-2.6c0-15.5,0-31,0.1-46.5
		c0-1.5,0.5-3,1.5-4c1.2-0.7,2.6-0.8,3.7-0.2c1.1,0.8,1.8,2,1.9,3.3c0.2,6.1,0.1,12.2,0.1,18.2c0,8.1,0,16.3,0,24.8
		c2.7-1.7,5.1-3.2,7.4-4.8c0.5-0.3,0.4-1.5,0.4-2.3c0-8.5,0-16.9,0-25.3c0-1.8,0.3-3.4,2.3-4.1c1.9-0.8,3.9,0,4.7,1.9
		c0.3,0.6,0.4,1.2,0.3,1.9c0,7.1,0,14.1,0,21.2v3.1c2.6-0.9,4.9-1.6,7.2-2.6c0.5-0.2,0.6-1.6,0.6-2.4c0-12.9,0-25.8,0-38.7
		c0-0.9,0-1.8,0.2-2.7c0.6-1.9,2.6-3,4.5-2.5c1.4,0.4,2.4,1.6,2.6,3c0.1,1.9,0.1,3.7,0.1,5.6c0,10.9,0,22,0,32.9v2.9l7.8-0.8v-2.9
		c0-15.6,0-31.2,0-46.8c0-0.8,0-1.6,0.1-2.5c0.1-1.8,1.7-3.2,3.4-3.1c0.1,0,0.2,0,0.3,0c1.8-0.2,3.3,1.2,3.4,2.9c0,0.1,0,0.3,0,0.4
		c0.1,3.5,0,7.2,0,10.7c0,12.7,0,25.5,0,38.2v2.8l8.2,0.9v-3c0-12.4,0-24.8,0-37.2c0-2.9,1.4-4.4,3.7-4.2c2.3,0.1,3.5,1.6,3.5,4.3
		c0,7.8,0,15.6,0,23.3c0,5.5,0.1,11,0,16.6c-0.2,1.2,0.5,2.3,1.7,2.5c0.1,0,0.1,0,0.2,0C150.6,62.4,152.5,63.2,154.7,63.9"/>
	<path id="Path_2530" style="fill:#FFFFFF;" d="M110.3,140.3v-12.1c0-7.3,0-14.6,0-22c-0.2-2,1.1-3.8,3-4.4c8.4-3,16.7-6,25.2-9
		c3.2-1.1,5.9,1.3,4.9,4.2c-0.6,1.3-1.7,2.3-3.1,2.8c-6.4,2.5-12.8,4.6-19.2,6.9c-3.8,1.4-3.8,1.4-3.3,6c3.6-1.3,7.4-2.6,10.9-3.8
		c6.2-2.2,12.3-4.5,18.5-6.6c1.6-0.5,2.3-1.2,2.2-2.9c-0.2-2.4-0.1-4.7,0-7.1c0-3,1.3-4.3,3.7-4.3c2.4,0.1,3.5,1.4,3.5,4.2
		c0,15.4,0,30.7,0,46.1c0.1,5.9-3.7,11.1-9.4,12.9c-7.1,2.3-14.6-1.7-16.8-8.8c-2.3-7.1,1.7-14.6,8.8-16.8c2.7-0.9,5.6-0.8,8.3,0.1
		c0.5,0.2,1.1,0.3,1.8,0.5v-16.6c-0.8,0.2-1.5,0.4-2.1,0.6c-9.3,3.3-18.5,6.6-27.8,9.9c-1.3,0.3-2.2,1.5-1.9,2.9
		c0.1,9.9,0.1,19.7,0,29.5c0.1,7.4-5.8,13.5-13.3,13.6c-7.4,0.1-13.5-5.8-13.6-13.3c-0.1-7.4,5.8-13.5,13.3-13.6
		c1.3,0,2.6,0.2,3.8,0.5C108.6,139.8,109.3,140.1,110.3,140.3 M137.2,138.4c0,3.4,2.8,6.2,6.2,6.2c3.3-0.1,6-2.8,6-6.1
		c0.1-3.3-2.6-6.1-5.9-6.1c-0.1,0-0.2,0-0.3,0C139.9,132.5,137.3,135.1,137.2,138.4 M104.1,158.5c3.3,0,6.2-2.7,6.2-6.1
		c0,0,0,0,0-0.1c-0.1-3.3-2.8-6-6.1-6.1c-3.3,0-6.1,2.8-6.1,6.1c0,0,0,0,0,0.1C98.1,155.8,100.7,158.5,104.1,158.5
		C104,158.5,104.1,158.5,104.1,158.5"/>
	<path id="Path_2531" style="fill:#FFFFFF;" d="M55.8,128.4c0,16.9,0,33.9,0,50.8c0,2-0.4,3.5-2.5,4.2c-1.9,0.7-4-0.4-4.6-2.3
		c-0.1-0.3-0.2-0.7-0.2-1c-0.1-0.7,0-1.3,0-2c0-33.4,0-66.9,0-100.3c0-0.4,0-0.8,0-1.2c0.1-2.9,1.5-4.4,3.7-4.3s3.5,1.6,3.5,4.3
		C55.8,94,55.8,111.2,55.8,128.4"/>
	<path id="Path_2532" style="fill:#FFFFFF;" d="M200,127.8c0-16.6,0-33.3,0-49.9c-0.1-0.8,0-1.6,0.1-2.5c0.3-2,2.2-3.3,4.1-3.1
		c1.4,0.2,2.5,1.2,2.9,2.5c0.2,0.7,0.3,1.5,0.2,2.2c0,34,0,68,0,102c0.1,1.4-0.4,2.7-1.3,3.6c-1.1,0.7-2.5,0.9-3.7,0.5
		c-1-0.4-1.6-1.8-2.2-2.9c-0.2-0.7-0.2-1.5-0.1-2.2C200,161.4,200,144.7,200,127.8"/>
	<path id="Path_2533" style="fill:#FFFFFF;" d="M230.3,128c0-11.2,0-22.4,0-33.6c0-0.7,0-1.5,0-2.2c0.2-2,2-3.4,3.9-3.3
		c1.7,0.2,3.1,1.5,3.3,3.2c0.1,0.7,0.1,1.3,0.1,2c0,22.7,0,45.3,0,67.9c0,0.6,0,1.2,0,1.7c0,1.9-1.5,3.3-3.3,3.3c-0.1,0-0.1,0-0.2,0
		c-1.9,0.2-3.5-1.2-3.7-3.2c0-0.1,0-0.1,0-0.2c-0.1-0.7,0-1.3,0-2C230.3,150.6,230.3,139.4,230.3,128"/>
	<path id="Path_2534" style="fill:#FFFFFF;" d="M25.6,128.1c0,11.6,0,23.3,0,34.8c0,2-0.6,3.5-2.7,4.1c-1.9,0.6-3.9-0.5-4.5-2.4
		c-0.1-0.5-0.2-0.9-0.2-1.4c-0.1-4.4,0-9,0-13.4c0-18.4,0-36.8,0-55.3c0-0.7,0-1.5,0-2.2c0.1-2,1.8-3.4,3.6-3.4c2,0,3.5,1.5,3.5,3.4
		v0.1c0.1,3.3,0,6.5,0,9.8C25.6,110.9,25.6,119.6,25.6,128.1"/>
	<path id="Path_2535" style="fill:#FFFFFF;" d="M215.1,127.8c0-8.6,0-17,0-25.6c0-0.7,0-1.3,0-2c0-1.9,1.6-3.4,3.4-3.4
		c2-0.1,3.6,1.4,3.7,3.3l0,0c0.1,0.8,0.1,1.6,0,2.5c0,17.3,0,34.8,0,52.1c0,3.4-2.7,5.5-5.3,3.8c-1.2-0.9-1.9-2.3-1.9-3.7
		C215.1,146,215.1,136.9,215.1,127.8"/>
	<path id="Path_2536" style="fill:#FFFFFF;" d="M40.7,128.2c0,9.1,0,18,0,27c0.2,1.9-1.1,3.6-3.1,3.9c-0.2,0-0.4,0-0.6,0
		c-2,0-3.6-1.7-3.6-3.6c0-0.1,0-0.2,0-0.4c0-0.3,0-0.7,0-1V102c0-0.3,0-0.7,0-1c0.1-2.7,1.5-4.2,3.7-4.2s3.5,1.7,3.5,4.3
		C40.7,110.2,40.7,119.3,40.7,128.2"/>
	<path id="Path_2537" style="fill:#FFFFFF;" d="M3.2,127.8c0-3.5,0-7.1,0-10.7c0-2.8,1.5-4.4,3.7-4.3c2.2,0.1,3.5,1.7,3.5,4.3
		c0,7.4,0,14.8,0,22.1c0,2.7-1.2,3.9-3.4,4c-2.4,0.1-3.7-1.4-3.8-3.9C3.1,135.5,3.2,131.7,3.2,127.8"/>
</g>
</svg>
