<?xml version="1.0" encoding="utf-8"?>
<!-- Generator: Adobe Illustrator 26.0.2, SVG Export Plug-In . SVG Version: 6.00 Build 0)  -->
<svg version="1.1" id="Layer_1" xmlns="http://www.w3.org/2000/svg" xmlns:xlink="http://www.w3.org/1999/xlink" x="0px" y="0px"
	 width="256px" height="256px" viewBox="0 0 256 256" style="enable-background:new 0 0 256 256;" xml:space="preserve">
<g id="Group_2260_00000027603071527468517950000007711330720713795006_" style="opacity:0.797;">
	<path id="Path_2523_00000130632194892992288590000012990787826095971509_" style="fill:#FFFFFF;" d="M133.4,2.1
		c3.8,0.8,7.7,1.3,11.5,2.4c16.8,4.7,30.8,16.4,38.4,32.1c0.4,0.7,0.4,1.6,0.2,2.4c-6.4,10.4-12.8,20.7-19.5,31.3
		c-4.5-4.5-10.7-6.8-17-6.6c-6.3,0.3-12.2,3.2-16.2,8c-4.4-5.3-8.6-10.5-12.8-15.7c-1.3-1.6-2.6-3.3-4.1-4.9c-2.5-3-6.7-3.6-10-1.6
		c-3.3,2.1-4.6,6.3-3,9.9l7.1,18.1c-1.2-0.3-1.8-0.3-2.4-0.5c-10.3-3.8-18.7-11.4-23.4-21.4c-3-6.5-5.7-13.2-8-20
		c-0.2-1-0.1-2,0.5-2.9C84.5,16,101.7,4.8,121,2.6c0.6-0.1,1.1-0.3,1.6-0.4L133.4,2.1L133.4,2.1z"/>
	<path id="Path_2524_00000047047624969114299430000004656265270051265931_" style="fill:#FFFFFF;" d="M190.3,58.2
		c1.2,8.4,0.7,17-1.6,25.1c-6.3,23.5-12.6,46.9-18.9,70.4c-3.8,14.1-7.4,28.2-11.3,42.2c-1.7,5-0.9,10.4,2.1,14.7
		c0.2,0.3,0.4,0.7,0.6,1.1c0.1,0.2,0.2,0.5,0.2,0.7h-49c19.9-34.7,23.9-71.8,17.6-110.5l0.7-0.6c0.3,0.7,0.6,1.3,1,1.9
		c5.6,6.3,14.4,8.7,22.4,6.2c8.1-2.2,14.4-8.7,16.2-16.9c0.5-2.1,1.4-4.1,2.5-6c5.2-8.6,10.6-17.1,15.9-25.7
		C189.1,60,189.5,59.3,190.3,58.2"/>
	<path id="Path_2525_00000148658931057974717910000015204007018802617254_" style="fill:#FFFFFF;" d="M98.7,204.6
		c-0.2-2.7-0.6-5.4-1.1-8c-9.5-36-19.1-71.9-28.7-107.9c-2.3-7.3-3.6-15-3.8-22.6c0-2.5,0.3-5.1,0.9-7.5c0.4,0.7,0.8,1.4,1.2,2.1
		C72.7,71.9,81.3,81.4,92,87.9c5.5,3.2,11.6,5.3,18,6.2c1.2,0.2,2.3,0.2,2.6,1.9c6,28.6,6.4,57-3.1,85.1
		C106.7,189.3,103.1,197.2,98.7,204.6"/>
	<path id="Path_2526_00000146467735069706556660000002080738098022538943_" style="fill:#FFFFFF;" d="M128,253.8
		c-14.6,0-29.2,0-43.7,0c-4.4,0.6-8.5-2.5-9.1-7c-0.3-2.2,0.3-4.5,1.8-6.3c2.3-3.6,4.4-7.3,6.7-10.8c0.6-0.9,1.6-1.4,2.6-1.6
		c27.8-0.1,55.7-0.1,83.5,0c1,0.1,1.9,0.6,2.5,1.4c2.5,3.9,5,7.9,7.3,11.9c2.5,3.6,1.6,8.5-2,10.9c-1.5,1-3.3,1.5-5.1,1.4
		C157.6,253.9,142.8,253.9,128,253.8"/>
	<path id="Path_2527_00000133497771522500489720000013068744273354179509_" style="fill:#FFFFFF;" d="M155.1,87
		c0.1,4-3.1,7.4-7.1,7.5c0,0,0,0-0.1,0c-4.2-0.3-7.3-3.9-7-8c0.3-3.8,3.3-6.8,7.1-7C152.1,79.6,155.2,82.9,155.1,87L155.1,87"/>
</g>
</svg>
