<?xml version="1.0" encoding="utf-8"?>
<!-- Generator: Adobe Illustrator 26.0.2, SVG Export Plug-In . SVG Version: 6.00 Build 0)  -->
<svg version="1.1" id="Layer_1" xmlns="http://www.w3.org/2000/svg" xmlns:xlink="http://www.w3.org/1999/xlink" x="0px" y="0px"
	 width="256px" height="256px" viewBox="0 0 256 256" style="enable-background:new 0 0 256 256;" xml:space="preserve">
<g id="Group_2262" style="opacity:0.797;">
	<path id="Path_2520" style="fill:#FFFFFF;" d="M252.6,125.6c0.1-10.9-4.5-21.3-12.7-28.5c-3.8-3.4-7.1-7.3-10-11.5
		c-1-1.4-2-2.7-2.9-4.1c-10.6-15.1-28-24.1-46.4-23.7c-17.5-0.1-35,0-52.5,0l0,0c-18.3,0-36.7-0.2-55,0.1C60.1,58.1,47.6,63,38,71.6
		c-6.6,5.6-10.9,13.1-16.1,19.9c-0.8,1.1-1.8,2.2-2.9,3c-9.7,7.4-15.5,18.8-15.6,31c-0.2,10.4-0.1,20.8,0,31.2
		c0.2,19.5,13.9,36.2,33,40.3c7.9,1.1,15.8,1.5,23.7,1.1c10.9-0.1,21.7-3.1,31.1-8.5c11-6.4,20.1-15.5,26.6-26.5
		c3.1-5.6,10.2-7.7,15.8-4.6c1.9,1,3.4,2.6,4.5,4.5c1,1.5,1.9,2.9,2.9,4.4c9.5,14.6,24.3,25.1,41.3,29c9.5,2.4,19.1,1.8,28.7,1.7
		c22.8-0.4,41.2-18.8,41.5-41.6C252.7,146.2,252.7,135.9,252.6,125.6 M194.5,124.2c-0.1,0.9-0.4,1.8-0.8,2.6
		c-3.4,7.4-6.9,14.9-10.3,22.3c-0.8,1.9-1.9,3.4-4.2,3.4s-3.3-1.5-4.2-3.3c-3.5-7.7-7-15.4-10.6-23c-0.8-1.8-1.1-3.7,0.5-4.8
		c1.2-0.9,2.8-1.2,4.3-1c1,0.2,2.1,1.6,2.6,2.7c2.5,5,4.7,10.1,7.3,15.8c2.5-5.4,4.7-10.2,7-15.1c0.3-0.8,0.7-1.5,1.1-2.2
		c1-1.5,3-2.1,4.7-1.4C193.7,120.8,194.7,122.5,194.5,124.2 M35.4,86.7C42.6,75.9,54,68.6,66.8,66.5c3-0.5,6-0.7,9-0.6h104.5
		c15.2-0.4,29.6,6.6,38.8,18.7c0.6,0.7,1,1.5,1.5,2.2L35.4,86.7z M223.2,146c1.4,1.7,1.1,4.3-0.6,5.7c-0.1,0.1-0.2,0.2-0.4,0.3
		c-1.9,1.2-4.5,0.6-5.6-1.4c-0.1-0.1-0.1-0.2-0.1-0.3c-1.4-2-2.7-4-3.9-6.1c-0.6-1.4-2.3-2.1-3.7-1.5c-0.1,0-0.2,0.1-0.3,0.1
		c0,1.8,0.1,3.7,0,5.6c0.1,2.1-1.5,4-3.6,4.1c-0.1,0-0.1,0-0.2,0c-2.1,0.2-3.9-1.4-4.1-3.5c0-0.1,0-0.2,0-0.3
		c-0.1-8.3-0.1-16.6,0-24.9c0-2.1,1.6-3.8,3.7-3.9c0.1,0,0.3,0,0.4,0c2.7-0.1,5.4-0.1,8,0c6.2-0.1,11.3,4.9,11.4,11.1
		c0,3.2-1.3,6.2-3.6,8.4c-0.3,0.3-0.7,0.5-1,0.7C220.9,142.4,222.1,144.2,223.2,146"/>
	<path id="Path_2521" style="fill:#FFFFFF;" d="M208.6,128.1v6.4c2.5-0.5,5.3,1,6.8-1.7c0.5-1.1,0.5-2.4-0.1-3.4
		C213.6,127.1,211,128.2,208.6,128.1"/>
</g>
</svg>
