<?xml version="1.0" encoding="utf-8"?>
<!-- Generator: Adobe Illustrator 26.0.2, SVG Export Plug-In . SVG Version: 6.00 Build 0)  -->
<svg version="1.1" id="Layer_1" xmlns="http://www.w3.org/2000/svg" xmlns:xlink="http://www.w3.org/1999/xlink" x="0px" y="0px"
	 width="256px" height="256px" viewBox="0 0 256 256" style="enable-background:new 0 0 256 256;" xml:space="preserve">
<g id="Group_2268" style="opacity:0.797;">
	<path id="Path_2522" style="fill:#FFFFFF;" d="M235.1,253.8H20.9c-0.3-0.2-0.6-0.3-0.9-0.4C9.3,251.6,1.7,242,2.2,231.1
		c0-68.7,0-137.4,0-206.1c0-2.3,0.2-4.6,0.8-6.8c2.6-9.8,11.6-16.5,21.8-16c51.1,0,102.2,0,153.3,0c18,0,36,0,54,0
		c9.3-0.1,17.6,5.9,20.6,14.7c0.4,1.3,0.8,2.7,1.2,4v214.3c-0.9,5.8-4.1,11-8.9,14.4C241.7,251.2,238.5,252.7,235.1,253.8
		 M105.8,179.9v-3.5c0-45.1,0-90.1,0-135.2c0-1.4-0.1-2.8-0.4-4.1c-0.9-3.2-3.8-5.4-7.1-5.3c-3.3,0.1-6.1,2.4-7,5.6
		c-0.2,1.2-0.3,2.4-0.2,3.7c0,45.1,0,90.3,0,135.4v3.5c-2.7,0-5.1-0.1-7.5,0c-4,0-7.3,3.3-7.3,7.4c0,4,3.3,7.3,7.4,7.3
		c2.4,0.1,4.8,0,7.4,0c0,7.4,0,14.2,0,21.1c0,1.1,0.1,2.3,0.4,3.4c1,3.3,4.3,5.5,7.8,5.1c3.8-0.5,6.7-3.8,6.6-7.7
		c0.1-6.4,0-12.8,0-19.2c0-0.9,0.1-1.7,0.1-2.7c2.6,0,4.9,0.1,7.2,0c4.1,0.1,7.4-3.1,7.5-7.2c0.1-4.1-3.1-7.4-7.2-7.5
		c-0.2,0-0.4,0-0.6,0C110.6,179.8,108.4,179.9,105.8,179.9 M61.3,76.2c2.6,0,4.8,0.1,7.1,0c4.1,0.2,7.5-3,7.7-7.1s-3-7.5-7.1-7.7
		c-0.3,0-0.6,0-0.9,0c-2.2,0-4.4,0-6.8,0v-3c0-6.2,0-12.4,0-18.7c0.2-2.5-0.9-4.9-2.9-6.5c-2.2-1.8-5.2-2.1-7.6-0.8
		c-2.7,1.2-4.4,4-4.2,6.9c-0.1,6.4,0,12.8,0,19.2c0,0.9-0.1,1.7-0.1,2.8h-3.7c-1.2,0-2.5,0-3.7,0c-4,0.1-7.2,3.2-7.3,7.2
		c-0.1,3.9,2.9,7.1,6.8,7.4c2.6,0.2,5.2,0,8,0v3.6c0,45,0,90.1,0,135.1c0,1.3,0.1,2.6,0.3,3.9c0.9,3.9,4.9,6.3,8.8,5.4
		c2.6-0.6,4.6-2.6,5.3-5.2c0.3-1.4,0.4-2.8,0.3-4.1c0-45,0-90.1,0-135.1L61.3,76.2z M135.4,76v3.7c0,45,0,90.1,0,135.1
		c0,0.9,0,1.8,0.1,2.7c0.4,3.6,3.4,6.5,7,6.7c3.5,0.1,6.6-2.2,7.4-5.6c0.2-1.2,0.3-2.4,0.2-3.7c0-45.1,0-90.2,0-135.4v-3.4
		c2.1,0.1,4.2,0.1,6.3-0.1c1.9-0.1,3.7-0.6,5.3-1.4c2.6-1.7,3.8-5,2.8-8c-0.9-3-3.6-5.1-6.7-5.2c-2.6-0.1-5.1,0-7.8,0
		c0-7.6,0-14.7,0-21.9c0.2-4.1-2.9-7.6-7-7.8c-0.1,0-0.2,0-0.4,0c-4.2,0.1-7.5,3.6-7.3,7.7c0,0.1,0,0.1,0,0.2c0,6,0,12,0,17.9v3.8
		c-1.4,0-2.4,0-3.5,0c-1.6,0-3.1-0.1-4.7,0.1c-3.7,0.3-6.5,3.3-6.6,7c-0.2,3.7,2.5,6.9,6.1,7.4C129.7,76.1,132.6,76.1,135.4,76
		 M217,120.6c-4.1,0-7.4,3.3-7.4,7.4c0,4,3.2,7.2,7.1,7.4c4.1,0.1,7.5-3.1,7.6-7.1c0.1-4.1-3.1-7.5-7.1-7.6
		C217.1,120.6,217.1,120.6,217,120.6 M216.8,46.5c3.9,0,7.2-3,7.5-6.9c0-4.1-3.2-7.5-7.3-7.8c-3.9,0-7.2,3.1-7.4,7
		C209.4,42.9,212.6,46.3,216.8,46.5C216.7,46.5,216.7,46.5,216.8,46.5 M194.6,128.4c0.2-4.1-2.9-7.5-7-7.7s-7.5,2.9-7.7,7
		c-0.2,4.1,2.9,7.5,7,7.7c0.1,0,0.2,0,0.2,0C191.1,135.3,194.3,132.3,194.6,128.4 M216.6,164.9c3.9,0,7.2-2.9,7.6-6.9
		c0.1-4.1-3.1-7.6-7.2-7.8c-3.9,0-7.2,3-7.5,6.9C209.3,161.2,212.5,164.7,216.6,164.9L216.6,164.9 M217.1,91.1
		c-3.9-0.1-7.3,2.9-7.6,6.8c-0.3,4.1,2.7,7.6,6.8,7.9s7.6-2.7,7.9-6.8c0.3-4.1-2.7-7.6-6.8-7.9C217.3,91.1,217.2,91.1,217.1,91.1
		 M209.5,216.6c0,4.1,3.3,7.5,7.4,7.6c3.9-0.2,7.1-3.3,7.3-7.2c0-4.1-3.3-7.5-7.4-7.5C212.9,209.6,209.6,212.7,209.5,216.6
		 M216.9,76.1c4,0,7.3-3.3,7.3-7.4c0-4-3.3-7.3-7.4-7.3c-4,0-7.3,3.3-7.3,7.4C209.6,72.9,212.9,76.1,216.9,76.1 M209.5,187
		c-0.1,4.1,3.1,7.5,7.3,7.6c0,0,0,0,0.1,0c4,0,7.3-3.3,7.3-7.3s-3.3-7.3-7.3-7.3C212.9,179.9,209.7,183,209.5,187 M187,46.5
		c3.9,0.1,7.2-2.9,7.5-6.9s-2.8-7.5-6.9-7.8c-4-0.3-7.5,2.8-7.8,6.9l0,0C179.7,42.8,182.9,46.3,187,46.5L187,46.5 M187.4,91.1
		c-3.9-0.1-7.2,3-7.5,6.9c-0.2,4,2.8,7.5,6.9,7.8c4,0.2,7.5-2.8,7.8-6.9C194.8,94.8,191.6,91.3,187.4,91.1
		C187.5,91.1,187.4,91.1,187.4,91.1 M187.1,165c3.9,0.1,7.2-3,7.5-6.9c0.3-4-2.8-7.6-6.8-7.9c-4-0.3-7.6,2.8-7.9,6.8
		c0,0.1,0,0.1,0,0.2C179.8,161.3,183,164.8,187.1,165L187.1,165 M187.4,209.6c-3.9-0.1-7.2,3-7.5,6.9c-0.2,4,2.8,7.5,6.9,7.8
		c4,0.2,7.5-2.8,7.8-6.9C194.8,213.2,191.6,209.7,187.4,209.6C187.5,209.6,187.4,209.6,187.4,209.6 M187.2,76.1c4,0,7.3-3.2,7.4-7.3
		c0-4-3.2-7.3-7.3-7.4c-3.9,0-7.2,3.1-7.4,7c-0.1,4.1,3.1,7.5,7.2,7.7C187.1,76.1,187.1,76.1,187.2,76.1 M194.6,187.7
		c0.2-4.1-2.9-7.5-6.9-7.7c-4.1-0.2-7.5,2.9-7.7,6.9c-0.2,4.1,2.9,7.5,6.9,7.7c0.1,0,0.2,0,0.3,0
		C191.1,194.6,194.3,191.6,194.6,187.7"/>
</g>
</svg>
